<svg id="mermaidChart545" width="100%" xmlns="http://www.w3.org/2000/svg" height="100%" style="max-width:875px;" viewBox="-75 -10 875 631"><style type="text/css" title="mermaid-svg-internal-css">/*  */
*, ::before, ::after { box-sizing: inherit;}
.actor { stroke: rgb(204, 204, 255); fill: rgb(226, 236, 255);}
text.actor { fill: black; stroke: none; font-size: 12px;}
.actor-line { stroke: grey;}
.messageLine0 { stroke-width: 1.5; stroke: black;}
#arrowhead { fill: black;}
.messageText { fill: black; stroke: none; font-size: 12px;}
.actor { stroke: rgb(204, 204, 255); fill: rgb(236, 236, 255);}
text.actor { fill: black; stroke: none;}
.actor-line { stroke: grey;}
.messageLine0 { stroke-width: 1.5; stroke: rgb(51, 51, 51);}
#arrowhead { fill: rgb(51, 51, 51);}
#crosshead path { fill: rgb(51, 51, 51) !important; stroke: rgb(51, 51, 51) !important;}
.messageText { fill: rgb(51, 51, 51); stroke: none;}
text { font-family: "trebuchet ms", verdana, arial; font-size: 14px;}
/*  */
</style><g></g><g><line id="actor2311" x1="75" y1="5" x2="75" y2="620" class="actor-line" stroke-width="0.5px" stroke="#999"></line><rect x="0" y="0" fill="#eaeaea" stroke="#666" width="150" height="65" rx="3" ry="3" class="actor"></rect><text x="75" y="37.5" class="actor" style="text-anchor: middle;">dracut</text></g><g><line id="actor2312" x1="275" y1="5" x2="275" y2="620" class="actor-line" stroke-width="0.5px" stroke="#999"></line><rect x="200" y="0" fill="#eaeaea" stroke="#666" width="150" height="65" rx="3" ry="3" class="actor"></rect><text x="275" y="37.5" class="actor" style="text-anchor: middle;">encryptrootfs</text></g><g><line id="actor2313" x1="475" y1="5" x2="475" y2="620" class="actor-line" stroke-width="0.5px" stroke="#999"></line><rect x="400" y="0" fill="#eaeaea" stroke="#666" width="150" height="65" rx="3" ry="3" class="actor"></rect><text x="475" y="37.5" class="actor" style="text-anchor: middle;">simple_cloud_encrypt</text></g><g><line id="actor2314" x1="675" y1="5" x2="675" y2="620" class="actor-line" stroke-width="0.5px" stroke="#999"></line><rect x="600" y="0" fill="#eaeaea" stroke="#666" width="150" height="65" rx="3" ry="3" class="actor"></rect><text x="675" y="37.5" class="actor" style="text-anchor: middle;">AWS KMS</text></g><defs><marker id="arrowhead" refX="5" refY="2" markerWidth="6" markerHeight="4" orient="auto"><path d="M 0,0 V 4 L6,2 Z"></path></marker></defs><defs><marker id="crosshead" markerWidth="15" markerHeight="8" orient="auto" refX="16" refY="4"><path fill="black" stroke="#000000" stroke-width="1px" d="M 9,2 V 6 L16,4 Z" style="stroke-dasharray: 0, 0;"></path><path fill="none" stroke="#000000" stroke-width="1px" d="M 0,1 L 6,7 M 6,1 L 0,7" style="stroke-dasharray: 0, 0;"></path></marker></defs><g><text x="175" y="93" class="messageText" style="text-anchor: middle;">start on pre-mount hook</text><line x1="75" y1="100" x2="275" y2="100" class="messageLine0" stroke-width="2" stroke="black" marker-end="url(#arrowhead)" style="fill: none;"></line></g><g><text x="275" y="128" class="messageText" style="text-anchor: middle;">check if /boot partiton exists</text><path d="M 275,135 C 335,125 335,165 275,155" class="messageLine0" stroke-width="2" stroke="black" marker-end="url(#arrowhead)" style="fill: none;"></path></g><g><text x="375" y="193" class="messageText" style="text-anchor: middle;">decrypt LUKS key</text><line x1="275" y1="200" x2="475" y2="200" class="messageLine0" stroke-width="2" stroke="black" marker-end="url(#arrowhead)" style="fill: none;"></line></g><g><text x="575" y="228" class="messageText" style="text-anchor: middle;">decrypt with KMS</text><line x1="475" y1="235" x2="675" y2="235" class="messageLine0" stroke-width="2" stroke="black" marker-end="url(#arrowhead)" style="fill: none;"></line></g><g><text x="575" y="263" class="messageText" style="text-anchor: middle;">decrypted key</text><line x1="675" y1="270" x2="475" y2="270" class="messageLine0" stroke-width="2" stroke="black" marker-end="url(#arrowhead)" style="fill: none;"></line></g><g><text x="375" y="298" class="messageText" style="text-anchor: middle;">decrypted key</text><line x1="475" y1="305" x2="275" y2="305" class="messageLine0" stroke-width="2" stroke="black" marker-end="url(#arrowhead)" style="fill: none;"></line></g><g><text x="275" y="333" class="messageText" style="text-anchor: middle;">unlock LUKS volume</text><path d="M 275,340 C 335,330 335,370 275,360" class="messageLine0" stroke-width="2" stroke="black" marker-end="url(#arrowhead)" style="fill: none;"></path></g><g><text x="275" y="398" class="messageText" style="text-anchor: middle;">mount LUKS volume</text><path d="M 275,405 C 335,395 335,435 275,425" class="messageLine0" stroke-width="2" stroke="black" marker-end="url(#arrowhead)" style="fill: none;"></path></g><g><text x="175" y="463" class="messageText" style="text-anchor: middle;">return control</text><line x1="275" y1="470" x2="75" y2="470" class="messageLine0" stroke-width="2" stroke="black" marker-end="url(#arrowhead)" style="fill: none;"></line></g><g><text x="75" y="498" class="messageText" style="text-anchor: middle;">switch_root</text><path d="M 75,505 C 135,495 135,535 75,525" class="messageLine0" stroke-width="2" stroke="black" marker-end="url(#arrowhead)" style="fill: none;"></path></g><g><rect x="0" y="555" fill="#eaeaea" stroke="#666" width="150" height="65" rx="3" ry="3" class="actor"></rect><text x="75" y="592.5" class="actor" style="text-anchor: middle;">dracut</text></g><g><rect x="200" y="555" fill="#eaeaea" stroke="#666" width="150" height="65" rx="3" ry="3" class="actor"></rect><text x="275" y="592.5" class="actor" style="text-anchor: middle;">encryptrootfs</text></g><g><rect x="400" y="555" fill="#eaeaea" stroke="#666" width="150" height="65" rx="3" ry="3" class="actor"></rect><text x="475" y="592.5" class="actor" style="text-anchor: middle;">simple_cloud_encrypt</text></g><g><rect x="600" y="555" fill="#eaeaea" stroke="#666" width="150" height="65" rx="3" ry="3" class="actor"></rect><text x="675" y="592.5" class="actor" style="text-anchor: middle;">AWS KMS</text></g></svg>