<svg id="mermaidChart411" width="100%" xmlns="http://www.w3.org/2000/svg" height="100%" style="max-width:875px;" viewBox="-75 -10 875 766"><style type="text/css" title="mermaid-svg-internal-css">/*  */
*, ::before, ::after { box-sizing: inherit;}
.actor { stroke: rgb(204, 204, 255); fill: rgb(226, 236, 255);}
text.actor { fill: black; stroke: none; font-size: 12px;}
.actor-line { stroke: grey;}
.messageLine0 { stroke-width: 1.5; stroke: black;}
#arrowhead { fill: black;}
.messageText { fill: black; stroke: none; font-size: 12px;}
.actor { stroke: rgb(204, 204, 255); fill: rgb(236, 236, 255);}
text.actor { fill: black; stroke: none;}
.actor-line { stroke: grey;}
.messageLine0 { stroke-width: 1.5; stroke: rgb(51, 51, 51);}
#arrowhead { fill: rgb(51, 51, 51);}
#crosshead path { fill: rgb(51, 51, 51) !important; stroke: rgb(51, 51, 51) !important;}
.messageText { fill: rgb(51, 51, 51); stroke: none;}
text { font-family: "trebuchet ms", verdana, arial; font-size: 14px;}
/*  */
</style><g></g><g><line id="actor1774" x1="75" y1="5" x2="75" y2="755" class="actor-line" stroke-width="0.5px" stroke="#999"></line><rect x="0" y="0" fill="#eaeaea" stroke="#666" width="150" height="65" rx="3" ry="3" class="actor"></rect><text x="75" y="37.5" class="actor" style="text-anchor: middle;">dracut</text></g><g><line id="actor1775" x1="275" y1="5" x2="275" y2="755" class="actor-line" stroke-width="0.5px" stroke="#999"></line><rect x="200" y="0" fill="#eaeaea" stroke="#666" width="150" height="65" rx="3" ry="3" class="actor"></rect><text x="275" y="37.5" class="actor" style="text-anchor: middle;">encryptrootfs</text></g><g><line id="actor1776" x1="475" y1="5" x2="475" y2="755" class="actor-line" stroke-width="0.5px" stroke="#999"></line><rect x="400" y="0" fill="#eaeaea" stroke="#666" width="150" height="65" rx="3" ry="3" class="actor"></rect><text x="475" y="37.5" class="actor" style="text-anchor: middle;">simple_cloud_encrypt</text></g><g><line id="actor1777" x1="675" y1="5" x2="675" y2="755" class="actor-line" stroke-width="0.5px" stroke="#999"></line><rect x="600" y="0" fill="#eaeaea" stroke="#666" width="150" height="65" rx="3" ry="3" class="actor"></rect><text x="675" y="37.5" class="actor" style="text-anchor: middle;">AWS KMS</text></g><defs><marker id="arrowhead" refX="5" refY="2" markerWidth="6" markerHeight="4" orient="auto"><path d="M 0,0 V 4 L6,2 Z"></path></marker></defs><defs><marker id="crosshead" markerWidth="15" markerHeight="8" orient="auto" refX="16" refY="4"><path fill="black" stroke="#000000" stroke-width="1px" d="M 9,2 V 6 L16,4 Z" style="stroke-dasharray: 0, 0;"></path><path fill="none" stroke="#000000" stroke-width="1px" d="M 0,1 L 6,7 M 6,1 L 0,7" style="stroke-dasharray: 0, 0;"></path></marker></defs><g><text x="175" y="93" class="messageText" style="text-anchor: middle;">start on pre-mount hook</text><line x1="75" y1="100" x2="275" y2="100" class="messageLine0" stroke-width="2" stroke="black" marker-end="url(#arrowhead)" style="fill: none;"></line></g><g><text x="375" y="128" class="messageText" style="text-anchor: middle;">gererate key</text><line x1="275" y1="135" x2="475" y2="135" class="messageLine0" stroke-width="2" stroke="black" marker-end="url(#arrowhead)" style="fill: none;"></line></g><g><text x="375" y="163" class="messageText" style="text-anchor: middle;">random key</text><line x1="475" y1="170" x2="275" y2="170" class="messageLine0" stroke-width="2" stroke="black" marker-end="url(#arrowhead)" style="fill: none;"></line></g><g><text x="275" y="198" class="messageText" style="text-anchor: middle;">create LUKS volume</text><path d="M 275,205 C 335,195 335,235 275,225" class="messageLine0" stroke-width="2" stroke="black" marker-end="url(#arrowhead)" style="fill: none;"></path></g><g><text x="275" y="263" class="messageText" style="text-anchor: middle;">create /boot partition</text><path d="M 275,270 C 335,260 335,300 275,290" class="messageLine0" stroke-width="2" stroke="black" marker-end="url(#arrowhead)" style="fill: none;"></path></g><g><text x="375" y="328" class="messageText" style="text-anchor: middle;">encrypt key</text><line x1="275" y1="335" x2="475" y2="335" class="messageLine0" stroke-width="2" stroke="black" marker-end="url(#arrowhead)" style="fill: none;"></line></g><g><text x="575" y="363" class="messageText" style="text-anchor: middle;">encrypt with KMS</text><line x1="475" y1="370" x2="675" y2="370" class="messageLine0" stroke-width="2" stroke="black" marker-end="url(#arrowhead)" style="fill: none;"></line></g><g><text x="575" y="398" class="messageText" style="text-anchor: middle;">encrypted key</text><line x1="675" y1="405" x2="475" y2="405" class="messageLine0" stroke-width="2" stroke="black" marker-end="url(#arrowhead)" style="fill: none;"></line></g><g><text x="375" y="433" class="messageText" style="text-anchor: middle;">encrypted key</text><line x1="475" y1="440" x2="275" y2="440" class="messageLine0" stroke-width="2" stroke="black" marker-end="url(#arrowhead)" style="fill: none;"></line></g><g><text x="275" y="468" class="messageText" style="text-anchor: middle;">storing encrypted key at /boot partition</text><path d="M 275,475 C 335,465 335,505 275,495" class="messageLine0" stroke-width="2" stroke="black" marker-end="url(#arrowhead)" style="fill: none;"></path></g><g><text x="275" y="533" class="messageText" style="text-anchor: middle;">mount LUKS volume</text><path d="M 275,540 C 335,530 335,570 275,560" class="messageLine0" stroke-width="2" stroke="black" marker-end="url(#arrowhead)" style="fill: none;"></path></g><g><text x="175" y="598" class="messageText" style="text-anchor: middle;">return control</text><line x1="275" y1="605" x2="75" y2="605" class="messageLine0" stroke-width="2" stroke="black" marker-end="url(#arrowhead)" style="fill: none;"></line></g><g><text x="75" y="633" class="messageText" style="text-anchor: middle;">switch_root</text><path d="M 75,640 C 135,630 135,670 75,660" class="messageLine0" stroke-width="2" stroke="black" marker-end="url(#arrowhead)" style="fill: none;"></path></g><g><rect x="0" y="690" fill="#eaeaea" stroke="#666" width="150" height="65" rx="3" ry="3" class="actor"></rect><text x="75" y="727.5" class="actor" style="text-anchor: middle;">dracut</text></g><g><rect x="200" y="690" fill="#eaeaea" stroke="#666" width="150" height="65" rx="3" ry="3" class="actor"></rect><text x="275" y="727.5" class="actor" style="text-anchor: middle;">encryptrootfs</text></g><g><rect x="400" y="690" fill="#eaeaea" stroke="#666" width="150" height="65" rx="3" ry="3" class="actor"></rect><text x="475" y="727.5" class="actor" style="text-anchor: middle;">simple_cloud_encrypt</text></g><g><rect x="600" y="690" fill="#eaeaea" stroke="#666" width="150" height="65" rx="3" ry="3" class="actor"></rect><text x="675" y="727.5" class="actor" style="text-anchor: middle;">AWS KMS</text></g></svg>